<svg fill="none" xmlns="http://www.w3.org/2000/svg" viewBox="0 0 424 263"><g clip-path="url(#a)"><g opacity=".2" fill="#A3A9AC"><path d="m168.53 178.69-106.57-1.03-1.1-45.54 108.3 1.45"/><path fill-rule="evenodd" clip-rule="evenodd" d="M171.84 199.43H113.9v35h57.93v-35Z"/><path d="M97.67 229.68H68.31l-.1-29.55 29.36-.23M360.54 178.69l-106.57-1.03-1.1-45.54 108.29 1.45"/><path fill-rule="evenodd" clip-rule="evenodd" d="M363.79 199.43h-57.93v35h57.93v-35Z"/><path d="M289.64 229.68h-29.37l-.1-29.55 29.82-.23"/></g><path opacity=".7" fill-rule="evenodd" clip-rule="evenodd" d="M237.59 104.08c0-1.89.65-3.44 1.77-4.52a6.52 6.52 0 0 1 4.64-1.72l128.3 1.67c3.74 0 6.47 2.82 6.47 5.55v8.49H237.52l.06-9.47Zm-.07 10.14h141.25v141.9c0 2.72-2.73 5.54-6.46 5.54H242.13a6.56 6.56 0 0 1-5.52-5.57l.91-141.87Zm141.92 141.9c0 2.26-1.58 4.47-3.97 5.54H417c.19 0 .34.15.34.34 0 .19-.15.34-.34.34H6a.34.34 0 0 1 0-.68h41.73a7.18 7.18 0 0 1-4.06-5.5v-.05l.97-152.22v-.05a7.23 7.23 0 0 1 2.42-4.44 7.1 7.1 0 0 1 4.73-1.74l129.37.99c1.57 0 3.11.79 4.25 1.94a6.27 6.27 0 0 1 1.93 4.28v151.24c0 1.58-.78 3.13-1.93 4.28-.5.51-1.07.94-1.7 1.27h56.17a7.15 7.15 0 0 1-3.94-5.5v-.05l.97-152.03a6.8 6.8 0 0 1 1.98-5 7.19 7.19 0 0 1 5.11-1.92l128.3 1.67c4.05 0 7.14 3.07 7.14 6.23v151.06ZM252.8 123.36a.34.34 0 0 0 0 .67h9.72a.34.34 0 0 0 0-.67h-9.72Zm60.25 0a.34.34 0 0 0 0 .67h8.74a.34.34 0 1 0 0-.67h-8.74Zm13.6 0a.34.34 0 0 0 0 .67h10.69a.34.34 0 1 0 0-.67h-10.7Zm14.57 0a.34.34 0 0 0 0 .67h8.75a.34.34 0 1 0 0-.67h-8.75Zm12.63 0a.34.34 0 0 0 0 .67h8.75a.34.34 0 0 0 0-.67h-8.75ZM47.5 99.9a6.43 6.43 0 0 1 4.28-1.57l129.38.98a5.5 5.5 0 0 1 3.78 1.74 5.6 5.6 0 0 1 1.72 3.81v8.5H45.25l.06-9.45c.23-1.56 1-2.98 2.2-4.01Zm-2.26 14.14h141.42v142.06a5.6 5.6 0 0 1-1.72 3.81 5.5 5.5 0 0 1-3.78 1.74H50.81a6.43 6.43 0 0 1-4.28-1.57 6.56 6.56 0 0 1-2.2-4l.91-142.04Zm16.27 9.15a.34.34 0 0 0 0 .67h8.76a.34.34 0 0 0 0-.67H61.5Zm60.31 0a.34.34 0 0 0 0 .67h7.78a.34.34 0 0 0 0-.67h-7.78Zm13.62 0a.34.34 0 0 0 0 .67h9.73a.34.34 0 0 0 0-.67h-9.73Zm13.62 0a.34.34 0 0 0 0 .67h8.76a.34.34 0 0 0 0-.67h-8.76Zm12.65 0a.34.34 0 0 0 0 .67h8.75a.34.34 0 0 0 0-.67h-8.75Z" fill="#A3A9AC"/><path fill-rule="evenodd" clip-rule="evenodd" d="M62.88 261.4h39.6l1.26-68.75H62.88v68.75Zm5.43-31.72h29.36l-.1-29.78-29.37.23.11 29.55Z" fill="#799CFB"/><path fill-rule="evenodd" clip-rule="evenodd" d="M68.31 200.16c.19 0 .33.15.33.33v28.86h29.04a.33.33 0 1 1 0 .65h-29.7V200.5c0-.18.15-.33.33-.33Z" fill="#587EF8"/><path d="M56.06 105.78a2.86 2.86 0 0 1-4.87 2.02 2.86 2.86 0 1 1 4.88-2.02M248.02 105.78a2.85 2.85 0 1 1-5.7 0 2.85 2.85 0 0 1 5.7 0" fill="#FF6B60"/><path d="M66.95 105.78a2.85 2.85 0 0 1-2.85 2.85 2.86 2.86 0 0 1 0-5.7 2.86 2.86 0 0 1 2.85 2.85ZM258.9 105.78a2.85 2.85 0 0 1-2.85 2.85 2.86 2.86 0 0 1 0-5.7 2.86 2.86 0 0 1 2.85 2.85Z" fill="#FFCF50"/><path d="M77.84 105.78a2.86 2.86 0 1 1-5.72 0 2.86 2.86 0 0 1 5.72 0M269.79 105.78a2.85 2.85 0 1 1-5.7 0 2.85 2.85 0 0 1 5.7 0Z" fill="#00C7B7"/><g opacity=".2" fill="#A3A9AC"><path d="M210.41 62.17c-.5.57-1.06 1.11-1.64 1.62-4.23 3.63-9.71 4.76-14.89 4.76h-64.72a10.35 10.35 0 0 0-10.34 10.36v19.55H109V78.91a20.17 20.17 0 0 1 20.16-20.18h64.89c3.86-.03 6.6-.9 8.32-2.39 1.61-1.38 3.13-3.97 3.13-9.25V-.16h9.82V47.1c0 5.28 1.52 7.87 3.13 9.25 1.75 1.5 4.53 2.39 8.49 2.39h69.35a20.17 20.17 0 0 1 20.16 20.18v19.6h-9.81v-19.6c0-5.72-4.64-10.36-10.35-10.36h-69.98v-.01c-4.99-.09-10.2-1.27-14.26-4.75-.59-.5-1.13-1.05-1.64-1.62ZM172.7 109.03H89.77a2.72 2.72 0 1 1 .02-5.44l82.94.57a2.43 2.43 0 0 1-.01 4.87ZM281.71 109.03h82.95a2.44 2.44 0 0 0 .02-4.87l-82.95-.57a2.72 2.72 0 0 0-.02 5.44Z"/></g><path fill-rule="evenodd" clip-rule="evenodd" d="M254.83 261.4h41.95l-1.09-68.75h-40.86v68.75Zm5.44-31.72h29.37l.35-29.78-29.83.23.11 29.55Z" fill="#FF6B60"/><path d="M173.61 192.21h-61.65c0 1.36.19 6.62.3 9.58a4.14 4.14 0 0 0 1.95 3.37c1.18.73 2.7 1.49 3.91 1.49a7.38 7.38 0 0 0 6.17-3.33 7.39 7.39 0 0 0 12.33 0 7.38 7.38 0 0 0 12.33 0 7.38 7.38 0 0 0 12.33 0 7.38 7.38 0 0 0 9.72 2.42 5.3 5.3 0 0 0 2.61-4.69v-8.83M365.56 192.21h-61.65c0 1.36.19 6.62.3 9.58a4.14 4.14 0 0 0 1.96 3.37c1.17.73 2.69 1.49 3.9 1.49a7.38 7.38 0 0 0 6.17-3.33 7.39 7.39 0 0 0 12.33 0 7.38 7.38 0 0 0 12.33 0 7.38 7.38 0 0 0 12.33 0 7.38 7.38 0 0 0 9.72 2.42 5.3 5.3 0 0 0 2.61-4.69v-8.83" fill="#FFDD73"/><path fill-rule="evenodd" clip-rule="evenodd" d="M149.58 191.9c.18 0 .31.16.3.34l-.6 11.1a.33.33 0 1 1-.65-.04l.6-11.1a.33.33 0 0 1 .35-.3Zm-24.96.32v11.1h-.66v-11.1h.66Zm11.68 11.1v-11.1h.65v11.1h-.65Zm24.66 0v-11.1h.65v11.1h-.65ZM341.53 191.9c.18 0 .32.16.3.34l-.6 11.1a.33.33 0 1 1-.65-.04l.6-11.1a.33.33 0 0 1 .35-.3Zm-24.96.32v11.1h-.66v-11.1h.66Zm11.68 11.1v-11.1h.65v11.1h-.65Zm24.66 0v-11.1h.66v11.1h-.66Z" fill="#DB9710"/><path d="M98.8 235.19c.2-.2.3-.48.3-.76a1.07 1.07 0 0 0-2.1-.33h-.95a.33.33 0 1 0 0 .66h.97a1.06 1.06 0 0 0 1.02.74c.28 0 .55-.11.75-.31ZM291 234.86a1.07 1.07 0 0 0-2-.76h-1a.33.33 0 1 0 0 .66h.95a1.07 1.07 0 0 0 2.05.1Z" fill="#646F73"/><path fill-rule="evenodd" clip-rule="evenodd" d="M260.27 200.16c.18 0 .32.15.32.33v28.86h29.04a.33.33 0 1 1 0 .65h-29.69V200.5c0-.18.15-.33.33-.33Z" fill="#B7303D"/><path d="M129.91 152.3a3.42 3.42 0 1 0-2.51-6.34c-3.76-4-10.04-5.53-15.97-3.38-5.93 2.15-9.78 7.34-10.1 12.83-.07.02-.14.03-.2.06a3.42 3.42 0 1 0 2.62 6.3c3.78 3.84 9.94 5.27 15.77 3.16 5.82-2.11 9.64-7.16 10.08-12.53l.32-.1M321.87 152.3a3.42 3.42 0 1 0-2.52-6.34c-3.76-4-10.04-5.53-15.97-3.38-5.93 2.15-9.78 7.34-10.1 12.83l-.2.06a3.42 3.42 0 1 0 2.62 6.3c3.78 3.84 9.94 5.27 15.76 3.16 5.83-2.11 9.65-7.16 10.1-12.53l.3-.1Z" fill="#FFCF50"/><path fill-rule="evenodd" clip-rule="evenodd" d="M119.7 147.23c-5.98-1.28-10.91.69-13.11 5.4a.33.33 0 0 1-.44.16.33.33 0 0 1-.16-.44c2.37-5.06 7.65-7.09 13.86-5.76a.33.33 0 0 1-.14.64ZM311.66 147.23c-6-1.28-10.92.69-13.12 5.4a.33.33 0 0 1-.44.16.33.33 0 0 1-.16-.44c2.37-5.06 7.65-7.09 13.86-5.76a.33.33 0 0 1-.14.64Z" fill="#FFF6D0"/><path d="M255.63 136.89a.88.88 0 0 0 .6-.75h.89a.33.33 0 1 0 0-.66h-.99l-.08.01a.89.89 0 0 0-.98-.3.9.9 0 0 0-.12 1.65c.21.1.46.12.68.05ZM357.04 137.73h.06a.9.9 0 1 0-.67-.29l-.37.44c-.11.14-.1.34.04.46s.35.1.46-.04l.48-.57ZM356.29 175.94a.85.85 0 0 0 .91-.2.84.84 0 0 0 0-1.18.85.85 0 1 0-.91 1.38ZM257.33 174.08l1.23-.33.18.63-1.14.31v.06a.94.94 0 0 1-.94.95.94.94 0 1 1 .67-1.62ZM64.6 136.94a.9.9 0 1 1 .8-1.27h.83a.33.33 0 1 1 0 .66h-.79a.89.89 0 0 1-.84.61ZM165.55 138.24a.9.9 0 0 1-.86-.03l-.08.1a.33.33 0 0 1-.46.03.33.33 0 0 1-.04-.46l.17-.2a.9.9 0 0 1 .46-1.06.9.9 0 0 1 1.21.4.9.9 0 0 1-.4 1.22ZM165.07 176.5a.85.85 0 0 1-.87-1l-.36-.17.3-.59.42.21a.85.85 0 0 1 1.33.7.85.85 0 0 1-.82.85ZM63.85 175.16a.94.94 0 0 1 1.53-1.07l1.23-.34.17.63-1.14.31a.94.94 0 0 1-.52.9.94.94 0 0 1-1.27-.43Z" fill="#A3A9AC"/><g opacity=".3" fill="#A3A9AC"><path d="M116.3 227.12c.04 2.44.14 4.88.37 7.31h11.53l-.02-9c0-.55 0-1.1-.1-1.65a4.54 4.54 0 0 0-2.48-3.2c-.24-.11-.48-.23-.64-.45-.16-.23-.18-.53-.2-.82l-.18-3.44c-.02-.46.05-1.05.5-1.15a3.3 3.3 0 0 0-1.1-.45l-.02-.24v-.37h-.46l-1.8-.02-.28-.78c-1.02.77-2.1 1.64-2.36 2.9-.12.56-.05 1.15.02 1.72l.31 2.48c.03.25.07.51-.02.75a1.6 1.6 0 0 1-.4.58l-.39.4c-.79.8-1.59 1.61-1.97 2.66a7.58 7.58 0 0 0-.31 2.77ZM169.64 229.94c-.03-.94-.05-1.88-.04-2.82a3.9 3.9 0 0 0-.73-2.45 8.82 8.82 0 0 0-1.9-1.67l-.06-.03c-.25-.19-.52-.4-.6-.7-.05-.26.04-.52.15-.76.2-.44.46-.85.76-1.22l.03-.03c.07-.1.16-.2.2-.31a1.2 1.2 0 0 0 .07-.44l.06-.72c.05-.6.1-1.21 0-1.8-.13-.84-.68-1.69-1.51-1.83a2.8 2.8 0 0 0-.49-.03c-.2 0-.4 0-.58-.05-.21-.05-.4-.16-.59-.27a1.9 1.9 0 0 0-1.9-.15c-.45.21-.83.57-1.13.98a4.15 4.15 0 0 0-.62 3.45c.08.32.2.62.33.92.12.3.24.6.33.9a8 8 0 0 1 .2 1.16v.01c.02.13.03.26-.02.37-.05.15-.2.24-.32.32-.66.4-1.3.86-1.79 1.47a3.62 3.62 0 0 0-.68 2.2l-.02 7.99h10.81c.14-1.5.1-3 .04-4.49ZM74.23 216.8c.2-.13.4-.27.53-.53-.02-.16-.31-.48-.48-.48-.39.02-.69-.32-.93-.63-.29-.35-.58-.76-.56-1.22.01-.25.12-.48.23-.71.1-.2.19-.38.23-.59a2.5 2.5 0 0 0-.17-1.15c-.14-.47-.28-.93-.07-1.35.1-.22.3-.38.48-.55.13-.1.26-.22.36-.35l.1-.14c.06-.08.11-.16.18-.22.33-.33.83-.3 1.32-.27l.37.02c.1 0 .2-.01.28-.05l.13-.1a.93.93 0 0 1 .05-.06c.19-.16.45-.2.7-.16.82.1 1.42.85 1.77 1.6l.31.8c.2.52.39 1.03.71 1.48l.08.1c.1.13.19.26.25.4.07.19.07.42-.07.57l-.13.1-.06.04c-.34.25-.42.67-.5 1.1-.05.23-.09.45-.17.65a2 2 0 0 1-.89.96c-.02.3-.05.62.02.9s.21.5.36.71c.25.38.58.75.92 1.13.69.76 1.4 1.57 1.67 2.55.28 1.06.28 2.21.26 3.34-.02 1.8-.06 2.16-.13 2.85-.05.44-.11 1-.2 2.13h-9.92a1341.53 1341.53 0 0 1 .02-7.01c0-.67 0-1.34.1-2 .21-1.6 1.7-3.04 2.74-3.78l.1-.07ZM93.7 217.8c-.14.25-.3.51-.43.82 1.6 1.22 1.58 1.75 1.49 5.8-.03 1.32-.07 3.02-.07 5.26h-9.2c-.07-1.13-.13-1.7-.17-2.13-.07-.7-.1-1.06-.13-2.86-.01-1.12-.01-2.28.25-3.33.23-.98.9-1.79 1.53-2.55l.16-.2a12 12 0 0 1-.44-2.03l-.14-.83a5.16 5.16 0 0 1 .77-4 3.2 3.2 0 0 1-.36-.95c-.11-.7.19-.86.6-1.09a3.47 3.47 0 0 0 .47-.3c.37-.27.7-.52 1.09-.26l.17.14c.1.1.2.2.32.2.3 0 .5-.1.65-.18.48-.25.73-.39 2.94 2.6.4.53.4 1.23.4 1.94 0 .49 0 .98.13 1.44.05.2.13.38.21.56l.1.25c.28.7.01 1.14-.33 1.7ZM131.57 229.37c-.33 1.72-.68 3.5-.53 5.06h11.06c.27-3.49-.4-5.65-.87-7.18-.33-1.06-.56-1.81-.33-2.5.07-.2-.02-.39-.1-.59-.04-.1-.09-.19-.11-.28-.14-.52.17-1.05.5-1.48l.07-.09c.3-.4.63-.82.65-1.32.01-.43-.2-.8-.4-1.18a2.73 2.73 0 0 1-.4-1.05c-.03-.25.02-.5.06-.74.04-.17.07-.34.08-.52a1.93 1.93 0 0 0-.53-1.41c-.14-.15-.3-.27-.46-.4-.33-.25-.65-.5-.76-.9a1.83 1.83 0 0 1-.04-.23 1.27 1.27 0 0 0-.08-.34c-.2-.46-.83-.5-1.32-.4l-.14.03c-.45.1-.95.22-1.37.05a1.52 1.52 0 0 0-1.21.1c-.38.19-.7.47-1 .75-.49.44-1.01 1-.91 1.64.02.18.1.34.17.5.1.24.2.47.17.72-.03.2-.14.36-.26.52a6.6 6.6 0 0 1-.5.56c-.5.52-1.02 1.05-.8 1.66 1.1 2.84.72 3.7.3 4.71-.2.47-.41.96-.5 1.7-.1.82-.26 1.7-.44 2.61ZM149.81 222.3a2.46 2.46 0 0 1-.22-.2c-.14.06-.34-.03-.45-.14l-.08-.1a.53.53 0 0 0-.1-.11.55.55 0 0 0-.22-.1c-.03 0-.07 0-.1-.02a.66.66 0 0 1-.36-.87l.03-.06c.05-.08.09-.17.07-.25 0-.06-.04-.1-.08-.15l-.02-.04a.98.98 0 0 1 .07-1.2 1.1 1.1 0 0 1 .09-1.17l.03-.05c.04-.05.09-.1.1-.16a.61.61 0 0 0 .02-.26v-.08c-.02-.18.02-.38.1-.54l.04-.07a.61.61 0 0 0 .09-.21c.01-.07 0-.14-.01-.21l-.02-.1c-.05-.49.65-.88 1.14-.8h.16c.07-.03.11-.1.16-.15a.98.98 0 0 1 .04-.06c.1-.13.37-.18.54-.17.11-.16.28-.37.45-.46.17-.1.4-.11.56 0l.05.04.1.07c.05.02.1.02.15.02h.04c.17-.01.33-.02.5.02a.64.64 0 0 1 .44.34l.07.11c.06.05.12.08.19.09h.02c.17.05.34.1.49.2.15.1.28.26.26.45a.82.82 0 0 1 .67.2.82.82 0 0 1 .25.64.72.72 0 0 1 .7.65c.01.12-.01.25-.04.37l-.04.23c-.01.14 0 .29.01.43a4 4 0 0 1 .02.25c0 .22-.03.46-.19.62l-.04.04-.1.11c-.04.08-.03.17-.03.25v.02c0 .26-.04.52-.18.74a.8.8 0 0 1-.62.4.5.5 0 0 1-.13.5.88.88 0 0 1-.16.12l-.09.06a.95.95 0 0 0-.38.71c0 .28.23.62.46.78 1.68 1.2 1.64 1.84 1.49 4.12-.1 1.5-.25 3.72.02 7.28h-9.58a30.29 30.29 0 0 1 1.69-9.07c.17-.53.3-.91 2.46-1.97.08-.2-.14-.7-.28-.86-.07-.09-.16-.16-.25-.23ZM361.6 229.94c-.03-.94-.06-1.88-.05-2.82.02-.87-.2-1.76-.73-2.45a8.88 8.88 0 0 0-1.91-1.67l-.05-.03c-.25-.19-.53-.4-.6-.7-.06-.26.04-.52.15-.76.2-.44.46-.85.76-1.22l.03-.03c.07-.1.15-.2.2-.31.05-.13.06-.27.07-.4v-.04l.05-.72c.06-.6.12-1.21.02-1.8-.14-.84-.7-1.69-1.53-1.83a2.8 2.8 0 0 0-.48-.03c-.2 0-.4 0-.58-.05-.21-.05-.4-.16-.59-.27a1.9 1.9 0 0 0-1.9-.15c-.45.21-.83.57-1.13.98a4.13 4.13 0 0 0-.62 3.45c.09.32.2.62.33.92.12.3.24.6.33.9.1.38.15.77.2 1.16v.01c.02.13.04.26-.01.37-.06.15-.2.24-.33.32-.66.4-1.3.86-1.78 1.47a3.6 3.6 0 0 0-.69 2.2l-.02 7.99h10.81c.14-1.5.1-3 .05-4.5ZM320.44 222.56c-.14.25-.3.5-.44.82 1.6 1.22 1.6 1.74 1.5 5.79-.04 1.32-.08 3.03-.07 5.26h-9.2c-.08-1.13-.13-1.7-.18-2.13-.06-.69-.1-1.06-.12-2.86-.02-1.12-.01-2.27.24-3.33.24-.98.91-1.79 1.54-2.56l.16-.18c-.22-.59-.34-1.36-.45-2.04l-.14-.83a5.15 5.15 0 0 1 .78-4 3.27 3.27 0 0 1-.37-.95c-.1-.7.2-.86.62-1.08l.07-.04c.13-.08.27-.17.4-.27.35-.26.7-.51 1.08-.26.06.04.1.1.16.15.1.1.2.2.33.2.3 0 .49-.1.65-.18.47-.25.73-.4 2.94 2.59.4.53.4 1.24.4 1.95 0 .49 0 .98.13 1.43.05.2.13.38.21.57l.1.24c.28.7 0 1.15-.34 1.72Z"/></g><path d="M111.95 191.88a.33.33 0 1 0 0 .66h62.79a.33.33 0 0 0 0-.65h-62.79ZM303.9 191.88a.33.33 0 1 0 0 .66h62.79a.33.33 0 0 0 0-.65H303.9Z" fill="#A3A9AC"/></g><defs><clipPath id="a"><path fill="#fff" d="M0 0h424v263H0z"/></clipPath></defs></svg>